<?xml version="1.0" encoding="utf-8"?>
<!-- Generator: Adobe Illustrator 26.0.2, SVG Export Plug-In . SVG Version: 6.00 Build 0)  -->
<svg version="1.1" xmlns="http://www.w3.org/2000/svg" xmlns:xlink="http://www.w3.org/1999/xlink" x="0px" y="0px"
	 viewBox="0 0 147 310" style="enable-background:new 0 0 147 310;" xml:space="preserve">
<style type="text/css">
	.st0{fill:#999999;}
	.st1{fill:#FFFFFF;stroke:#000000;stroke-width:3.5;}
</style>
<g id="Layer_1" xmlns:ev="http://www.w3.org/2001/xml-events">
	<g transform="translate(58.5,30.5)">
		<rect y="-30.5" class="st0" width="30" height="30"/>
		<circle class="st1" cx="15" cy="-15.5" r="11.5"/>
		<rect y="4.5" class="st0" width="30" height="30"/>
		<circle class="st1" cx="15" cy="19.5" r="11.5"/>
		<rect y="39.5" class="st0" width="30" height="30"/>
		<circle class="st1" cx="15" cy="54.5" r="11.5"/>
		<rect y="74.5" class="st0" width="30" height="30"/>
		<circle class="st1" cx="15" cy="89.5" r="11.5"/>
		<rect y="109.5" class="st0" width="30" height="30"/>
		<circle class="st1" cx="15" cy="124.5" r="11.5"/>
		<rect y="144.5" class="st0" width="30" height="30"/>
		<circle class="st1" cx="15" cy="159.5" r="11.5"/>
		<rect y="179.5" class="st0" width="30" height="30"/>
		<circle class="st1" cx="15" cy="194.5" r="11.5"/>
		<rect y="214.5" class="st0" width="30" height="30"/>
		<circle class="st1" cx="15" cy="229.5" r="11.5"/>
		<rect y="249.5" class="st0" width="30" height="30"/>
		<circle class="st1" cx="15" cy="264.5" r="11.5"/>
	</g>
	<g transform="translate(117.0,30.5)">
		<rect y="-30.5" class="st0" width="30" height="30"/>
		<circle class="st1" cx="15" cy="-15.5" r="11.5"/>
		<rect y="4.5" class="st0" width="30" height="30"/>
		<circle class="st1" cx="15" cy="19.5" r="11.5"/>
		<rect y="39.5" class="st0" width="30" height="30"/>
		<circle class="st1" cx="15" cy="54.5" r="11.5"/>
		<rect y="74.5" class="st0" width="30" height="30"/>
		<circle class="st1" cx="15" cy="89.5" r="11.5"/>
		<rect y="109.5" class="st0" width="30" height="30"/>
		<circle class="st1" cx="15" cy="124.5" r="11.5"/>
		<rect y="144.5" class="st0" width="30" height="30"/>
		<circle class="st1" cx="15" cy="159.5" r="11.5"/>
		<rect y="179.5" class="st0" width="30" height="30"/>
		<circle class="st1" cx="15" cy="194.5" r="11.5"/>
		<rect y="214.5" class="st0" width="30" height="30"/>
		<circle class="st1" cx="15" cy="229.5" r="11.5"/>
		<rect y="249.5" class="st0" width="30" height="30"/>
		<circle class="st1" cx="15" cy="264.5" r="11.5"/>
	</g>
</g>
<g id="Layer_2">
	<g transform="translate(58.5,30.5)">
		<rect x="-58.5" y="-30.5" class="st0" width="30" height="30"/>
		<circle class="st1" cx="-43.5" cy="-15.5" r="11.5"/>
		<rect x="-58.5" y="4.5" class="st0" width="30" height="30"/>
		<circle class="st1" cx="-43.5" cy="19.5" r="11.5"/>
		<rect x="-58.5" y="39.5" class="st0" width="30" height="30"/>
		<circle class="st1" cx="-43.5" cy="54.5" r="11.5"/>
		<rect x="-58.5" y="74.5" class="st0" width="30" height="30"/>
		<circle class="st1" cx="-43.5" cy="89.5" r="11.5"/>
		<rect x="-58.5" y="109.5" class="st0" width="30" height="30"/>
		<circle class="st1" cx="-43.5" cy="124.5" r="11.5"/>
		<rect x="-58.5" y="144.5" class="st0" width="30" height="30"/>
		<circle class="st1" cx="-43.5" cy="159.5" r="11.5"/>
		<rect x="-58.5" y="179.5" class="st0" width="30" height="30"/>
		<circle class="st1" cx="-43.5" cy="194.5" r="11.5"/>
		<rect x="-58.5" y="214.5" class="st0" width="30" height="30"/>
		<circle class="st1" cx="-43.5" cy="229.5" r="11.5"/>
		<rect x="-58.5" y="249.5" class="st0" width="30" height="30"/>
		<circle class="st1" cx="-43.5" cy="264.5" r="11.5"/>
	</g>
</g>
</svg>
